<svg width="497" height="309" viewBox="0 0 497 309" fill="none" xmlns="http://www.w3.org/2000/svg">
<path d="M287.082 -157.462C337.406 -162.376 399.026 -146.551 441.814 -104.643C484.602 -62.7344 508.418 6.0742 490.089 58.1254C471.761 110.177 411.384 145.834 368.025 187.45C324.665 229.066 298.658 276.552 259.171 296.483C219.349 316.503 166.048 308.968 109.837 293.252C53.291 277.626 -6.16392 253.82 -31.2606 208.34C-56.2599 163.223 -47.2355 96.5232 -37.1272 36.5454C-27.0189 -23.4324 -16.2586 -76.9619 16.5664 -99.0033C49.0569 -120.955 103.849 -111.872 150.523 -119.703C197.532 -127.624 236.659 -152.912 287.082 -157.462Z" fill="url(#paint0_linear_642_300)"/>
<defs>
<linearGradient id="paint0_linear_642_300" x1="7.66146" y1="366.06" x2="555.054" y2="219.387" gradientUnits="userSpaceOnUse">
<stop stop-color="#73E0A9"/>
<stop offset="1" stop-color="#5B68DF"/>
</linearGradient>
</defs>
</svg>
