<svg width="344" height="535" viewBox="0 0 344 535" fill="none" xmlns="http://www.w3.org/2000/svg">
<path d="M17.4723 291.021C-4.37173 245.183 -8.26404 179.305 21.3874 119.754C51.0388 60.2043 115.135 6.75086 175.684 1.00492C236.233 -4.74101 293.583 36.9652 351.521 59.7687C409.458 82.5721 467.778 86.1932 501.739 114.983C535.905 144.052 545.711 198.29 547.923 258.957C550.339 319.904 545.16 387.28 505.9 431.54C466.988 475.544 394.199 496.711 328.083 513.842C261.968 530.973 202.384 544.602 168.426 523.114C134.673 501.904 125.992 445.552 102.306 404.501C78.4161 363.17 38.9684 337.115 17.4723 291.021Z" fill="url(#paint0_linear_642_301)"/>
<defs>
<linearGradient id="paint0_linear_642_301" x1="658.019" y1="323.971" x2="322.865" y2="-133" gradientUnits="userSpaceOnUse">
<stop stop-color="#73E0A9"/>
<stop offset="1" stop-color="#5B68DF"/>
</linearGradient>
</defs>
</svg>
