<svg width="337" height="266" viewBox="0 0 337 266" fill="none" xmlns="http://www.w3.org/2000/svg">
<path opacity="0.15" d="M75.9557 228.848C47.9949 218.93 19.1916 195.458 6.88245 163.121C-5.42677 130.785 -0.964561 89.1948 21.7218 66.7369C44.4082 44.2789 85.3574 40.7402 118.747 29.8952C152.137 19.0502 177.767 0.862343 203.706 0.306186C229.844 -0.213571 256.29 16.8983 282.246 38.9742C308.403 61.0865 334.071 88.1628 336.092 117.97C338.151 147.564 316.765 179.925 296.474 208.53C276.184 237.136 257.151 262.236 234.228 265.537C211.504 268.875 184.651 250.59 157.905 243.09C130.958 235.554 103.878 238.978 75.9557 228.848Z" fill="url(#paint0_linear_642_298)"/>
<defs>
<linearGradient id="paint0_linear_642_298" x1="354.645" y1="26.5204" x2="27.3194" y2="-33" gradientUnits="userSpaceOnUse">
<stop stop-color="#73E0A9"/>
<stop offset="1" stop-color="#5B68DF"/>
</linearGradient>
</defs>
</svg>
