<svg width="585" height="469" viewBox="0 0 585 469" fill="none" xmlns="http://www.w3.org/2000/svg">
<path d="M-81.7735 365.675C-110.077 307.15 -116.224 223.565 -80.1311 148.643C-44.0387 73.7203 35.4193 7.18511 111.336 1.05853C187.252 -5.06804 260.058 48.8971 333.241 78.9112C406.424 108.925 479.721 114.63 522.912 151.775C566.367 189.278 579.716 258.22 583.652 335.167C587.851 412.472 582.637 497.783 534.187 553.138C486.169 608.176 395.179 633.617 312.492 654.07C229.804 674.522 155.251 690.661 112.201 662.772C69.4149 635.24 57.4382 563.64 26.9139 511.148C-3.87287 458.298 -53.9019 424.516 -81.7735 365.675Z" fill="url(#paint0_linear_27_342)"/>
<defs>
<linearGradient id="paint0_linear_27_342" x1="723.133" y1="419.686" x2="293.576" y2="-166" gradientUnits="userSpaceOnUse">
<stop stop-color="#73E0A9"/>
<stop offset="1" stop-color="#5B68DF"/>
</linearGradient>
</defs>
</svg>
