<svg width="432" height="329" viewBox="0 0 432 329" fill="none" xmlns="http://www.w3.org/2000/svg">
<path opacity="0.1" d="M98.8955 281.646C62.9303 269.148 25.7601 239.912 9.67089 199.886C-6.41835 159.86 -1.07429 108.566 27.8271 81.0543C56.7284 53.5422 109.235 49.5496 151.975 36.4694C194.716 23.3892 227.433 1.17478 260.708 0.725935C294.239 0.323854 328.326 21.6874 361.831 49.1736C395.594 76.7065 428.774 110.362 431.64 147.171C434.554 183.718 407.411 223.466 381.64 258.588C355.869 293.71 331.679 324.516 302.298 328.381C273.174 332.293 238.554 309.478 204.168 299.976C169.526 290.427 134.813 294.405 98.8955 281.646Z" fill="url(#paint0_linear_642_299)"/>
<defs>
<linearGradient id="paint0_linear_642_299" x1="454.606" y1="34.4651" x2="34.0951" y2="-42" gradientUnits="userSpaceOnUse">
<stop stop-color="#73E0A9"/>
<stop offset="1" stop-color="#5B68DF"/>
</linearGradient>
</defs>
</svg>
