<svg width="198" height="351" viewBox="0 0 198 351" fill="none" xmlns="http://www.w3.org/2000/svg">
<path opacity="0.1" d="M-149.121 191.569C-163.799 161.576 -166.927 118.41 -148.084 79.3165C-129.24 40.2231 -87.8381 5.04913 -48.3302 1.14936C-8.82218 -2.75041 29.0171 24.4559 67.0724 39.2725C105.128 54.0891 143.263 56.3332 165.706 75.1263C188.286 94.1019 195.175 129.626 197.158 169.381C199.278 209.319 196.493 253.487 171.236 282.581C146.203 311.506 98.8354 325.539 55.7921 336.913C12.7487 348.287 -26.0587 357.351 -48.4358 343.343C-70.6766 329.517 -76.8485 292.605 -92.6876 265.753C-108.663 238.719 -134.667 221.731 -149.121 191.569Z" fill="url(#paint0_linear_642_297)"/>
<defs>
<linearGradient id="paint0_linear_642_297" x1="269.665" y1="211.746" x2="46.6387" y2="-87" gradientUnits="userSpaceOnUse">
<stop stop-color="#73E0A9"/>
<stop offset="1" stop-color="#5B68DF"/>
</linearGradient>
</defs>
</svg>
